<svg
      version='1.1'
      id='Layer_1'
      xmlns='http://www.w3.org/2000/svg'
      xmlnsXlink='http://www.w3.org/1999/xlink'
      x='0px'
      y='0px'
      viewBox='0 0 512 512'
      xmlSpace='preserve'
	  fill="currentColor"
	  stroke='currentColor'>
			<path d="M288.672,129.527h66.83c11.466,0,20.795-9.327,20.795-20.793V53.523c0-11.466-9.328-20.794-20.795-20.794h-66.83
				c-11.465,0-20.794,9.328-20.794,20.794v55.211C267.879,120.199,277.207,129.527,288.672,129.527z M283.962,53.523
				c0-2.554,2.157-4.712,4.711-4.712h66.83c2.554,0,4.712,2.158,4.712,4.712v55.211c0,2.553-2.158,4.71-4.712,4.71h-66.83
				c-2.554,0-4.711-2.157-4.711-4.71V53.523z"/>
			<path d="M156.5,129.527h66.83c11.465,0,20.794-9.327,20.794-20.793V53.523c0-11.466-9.328-20.794-20.794-20.794H156.5
				c-11.466,0-20.795,9.328-20.795,20.794v55.211C135.705,120.199,145.033,129.527,156.5,129.527z M151.787,53.523
				c0-2.554,2.158-4.712,4.712-4.712h66.83c2.554,0,4.711,2.158,4.711,4.712v55.211c0,2.553-2.157,4.71-4.711,4.71H156.5
				c-2.554,0-4.712-2.157-4.712-4.71V53.523z"/>
			<path d="M441.739,163.347c-4.165-9.923-13.809-16.334-24.567-16.334c-2.06,0-4.09,0.243-6.077,0.712V20.795
				C411.095,9.328,401.767,0,390.301,0h-268.6c-11.465,0-20.794,9.328-20.794,20.795V277.52l-16.392,6.88
				c-6.561,2.753-11.657,7.898-14.349,14.485c-2.692,6.586-2.658,13.827,0.096,20.388c4.163,9.923,13.808,16.335,24.57,16.335
				c2.057,0,4.087-0.244,6.074-0.712V453.46c0,8.616,5.269,16.023,12.753,19.174v20.206c0,10.565,8.596,19.161,19.161,19.161
				h246.361c10.566,0,19.161-8.596,19.161-19.161v-20.206c7.483-3.15,12.751-10.558,12.751-19.174V205.098l16.391-6.88
				c6.561-2.753,11.657-7.898,14.349-14.485C444.527,177.147,444.492,169.906,441.739,163.347z M121.701,16.083h268.601
				c2.554,0,4.71,2.158,4.71,4.712v133.276l-19.064,8.003c-1.755-9.701-10.246-17.088-20.444-17.088h-66.83
				c-11.465,0-20.794,9.328-20.794,20.795v41.655l-23.755,9.971v-51.626c0-11.466-9.328-20.795-20.794-20.795H156.5
				c-11.466,0-20.795,9.328-20.795,20.795v55.211c0,11.466,9.328,20.795,20.795,20.795h29.542l-69.051,28.984V20.795h-0.001
				C116.99,18.241,119.147,16.083,121.701,16.083z M360.214,165.78v2.897l-76.253,32.007v-34.905c0-2.554,2.157-4.712,4.711-4.712
				h66.83C358.056,161.068,360.214,163.226,360.214,165.78z M228.041,165.78v55.211c0,2.554-2.157,4.712-4.711,4.712H156.5
				c-2.554,0-4.712-2.158-4.712-4.712V165.78c0-2.554,2.158-4.712,4.712-4.712h66.83
				C225.884,161.068,228.041,163.226,228.041,165.78z M146.399,495.917H132.82c-1.669,0-3.078-1.409-3.078-3.078v-18.585h16.656
				V495.917z M197.178,495.917h-34.697v-21.663h34.697V495.917z M247.96,495.917h-34.698v-21.663h34.698V495.917z M298.741,495.917
				h-34.698v-21.663h34.698V495.917z M349.521,495.917h-34.698v-21.663h34.698V495.917z M382.259,492.839
				c0,1.669-1.41,3.078-3.078,3.078h-13.577v-21.663h16.655V492.839z M395.012,453.46c0,2.554-2.157,4.712-4.71,4.712H121.701
				c-2.554,0-4.711-2.158-4.711-4.712V328.549l63.676-26.727c3.694,8.494,12.164,14.45,22.001,14.45h106.672
				c13.223,0,23.981-10.757,23.981-23.979v-54.547l15.797-6.631v61.179c0,4.441,3.599,8.041,8.041,8.041
				c4.441,0,8.041-3.6,8.041-8.041v-67.929l29.812-12.513V453.46z M195.501,295.593l121.738-51.099v47.797
				c0,4.354-3.544,7.897-7.899,7.897H202.668C199.492,300.187,196.755,298.301,195.501,295.593z M426.948,177.649
				c-1.067,2.61-3.086,4.647-5.687,5.739L98.914,318.695c-1.313,0.55-2.686,0.829-4.081,0.829c-4.266,0-8.09-2.541-9.741-6.475
				c-1.091-2.601-1.104-5.471-0.038-8.081c1.066-2.61,3.085-4.647,5.685-5.739l322.351-135.306c1.31-0.55,2.683-0.828,4.081-0.828
				c4.264,0,8.086,2.541,9.738,6.476C428,172.17,428.014,175.039,426.948,177.649z"/>
			<path d="M286.202,369.871c-4.442,0-8.041,3.599-8.041,8.041c0,3.893-3.166,7.059-7.059,7.059s-7.059-3.166-7.059-7.059
				c0-4.442-3.599-8.041-8.041-8.041c-4.442,0-8.041,3.599-8.041,8.041c0,3.893-3.166,7.059-7.059,7.059
				c-3.894,0-7.061-3.166-7.061-7.059c0-4.442-3.599-8.041-8.041-8.041c-4.442,0-8.041,3.599-8.041,8.041
				c0,12.76,10.383,23.142,23.144,23.142c5.772,0,11.044-2.138,15.101-5.645c4.057,3.507,9.329,5.645,15.101,5.645
				c12.76,0,23.142-10.382,23.142-23.142C294.244,373.47,290.643,369.871,286.202,369.871z"/>
			<circle cx="330.723" cy="365.708" r="15.192"/>
			<path d="M346.973,397.893h-32.501c-4.442,0-8.041,3.599-8.041,8.041c0,4.442,3.599,8.041,8.041,8.041h32.501
				c4.441,0,8.041-3.599,8.041-8.041C355.014,401.493,351.415,397.893,346.973,397.893z"/>
			<path d="M197.529,397.893h-32.501c-4.441,0-8.041,3.599-8.041,8.041c0,4.442,3.6,8.041,8.041,8.041h32.501
				c4.442,0,8.041-3.599,8.041-8.041C205.57,401.493,201.971,397.893,197.529,397.893z"/>
			<circle cx="181.279" cy="365.708" r="15.192"/>
</svg>
