<svg       
	version='1.1'
    id='Layer_1'
    xmlns='http://www.w3.org/2000/svg'
    xmlnsXlink='http://www.w3.org/1999/xlink'
    x='0px'
    y='0px'
    viewBox='0 0 512 512'
    xmlSpace='preserve'
	>
	<circle cx="185.053" cy="224.164" r="14.494"/>
			<path d="M362.996,299.717c-18.145,0-32.908,14.762-32.908,32.906c0,18.144,14.763,32.906,32.908,32.906
				c18.144,0,32.905-14.762,32.905-32.906C395.902,314.478,381.14,299.717,362.996,299.717z M362.996,349.518
				c-9.318,0-16.898-7.58-16.898-16.896c0-9.316,7.581-16.896,16.898-16.896c9.315,0,16.895,7.58,16.895,16.896
				C379.893,341.939,372.313,349.518,362.996,349.518z"/>
			<path d="M200.71,328.101c-18.144,0-32.905,14.762-32.905,32.907c0,18.143,14.761,32.904,32.905,32.904
				s32.905-14.761,32.905-32.904C233.615,342.862,218.854,328.101,200.71,328.101z M200.71,377.902
				c-9.316,0-16.895-7.579-16.895-16.894c0-9.318,7.58-16.897,16.895-16.897s16.895,7.58,16.895,16.897
				C217.605,370.323,210.025,377.902,200.71,377.902z"/>
			<path d="M506.242,213.532c-0.774-4.894-4.715-10.187-13.282-8.992c-3.579,0.497-7.182,0.75-10.712,0.75
				c-43.021,0-78.019-34.999-78.019-78.018c0-3.866,0.287-7.752,0.853-11.553l0.199-1.312c1.475-9.686,0.139-12.955-7.945-19.437
				c-18.484-14.819-29.395-36.865-29.933-60.485c-0.006-0.282-0.005-0.541-0.004-0.78c0.01-2.412,0.03-8.062-7.093-11.288
				c-15.492-7.006-31.752-12.439-48.351-16.188c-4.939-2.965-10.715-4.675-16.883-4.675c-2.094,0-4.141,0.205-6.127,0.582
				C278.079,0.724,267.004,0,255.997,0C203.48,0,153.172,15.909,110.391,46.006c-12.333,3.432-24.14,10.487-34.337,20.684
				c-8.896,8.895-15.395,19.167-19.079,29.901C21.419,141.654,2.624,195.83,2.624,253.376c0,32.475,6.081,64.105,18.058,94.039
				c1.338,15.892,8.587,31.783,21.662,44.857c1.474,1.474,2.998,2.862,4.55,4.197c19.965,29.116,46.308,54.208,76.322,72.72
				c5.629,7.588,14.443,12.675,24.447,13.277c33.984,16.103,70.419,24.284,108.335,24.284c1.194,0,2.382-0.025,3.572-0.045
				c8.304,3.426,17.587,5.292,27.515,5.294h0.005c4.67,0,9.433-0.423,14.154-1.254c14.529-2.563,27.515-8.794,37.539-17.842
				c24.542-8.48,47.569-20.678,68.502-36.285c9.726-2.475,17.729-9.297,21.826-18.266c24.833-23.241,44.448-50.691,58.29-81.634
				c14.58-32.591,21.973-67.36,21.973-103.342C509.375,240.078,508.322,226.671,506.242,213.532z M387.319,107.461
				c0.486,0.39,1.713,1.374,2.484,2.077c-0.08,0.677-0.221,1.604-0.351,2.458l-0.206,1.368c-0.682,4.578-1.027,9.256-1.027,13.908
				c0,12.219,2.345,23.902,6.605,34.621c-18.19,4.805-37.599-0.27-51.222-13.894c-20.803-20.804-20.803-54.653,0-75.456
				c3.872-3.872,8.136-7.02,12.729-9.436C362.107,80.352,372.749,95.78,387.319,107.461z M295.069,17.566
				c9.316,0,16.896,7.58,16.896,16.896s-7.58,16.896-16.896,16.896c-9.316,0-16.897-7.58-16.897-16.896
				C278.172,25.144,285.752,17.566,295.069,17.566z M69.601,113.771c0.921-12.521,7.233-25.22,17.774-35.759
				c11.683-11.685,26.347-18.386,40.231-18.386c11.579,0,22.289,4.59,30.974,13.276c10.077,10.076,15.628,23.474,15.628,37.726
				s-5.55,27.649-15.628,37.727c-10.076,10.078-23.472,15.628-37.721,15.628h-0.004c-14.253-0.002-27.651-5.551-37.728-15.627
				C73.333,138.562,68.656,126.603,69.601,113.771z M53.664,380.953c-21.861-21.861-23.162-52.293-3.095-72.361
				c10.077-10.077,23.476-15.627,37.728-15.627c14.252,0,27.648,5.55,37.727,15.628c10.077,10.076,15.627,23.475,15.627,37.727
				c0,14.252-5.55,27.649-15.628,37.728c-9.26,9.26-20.772,14.153-33.295,14.153h-0.003C78.656,398.2,64.785,392.074,53.664,380.953
				z M149.657,466.523c-9.318,0-16.898-7.58-16.898-16.895c0-9.316,7.581-16.897,16.898-16.897c9.316,0,16.895,7.58,16.895,16.897
				C166.552,458.944,158.972,466.523,149.657,466.523z M298.464,494.979c-3.806,0.671-7.632,1.012-11.374,1.012h-0.003
				c-25.895-0.002-45.348-15.451-49.563-39.358c-2.474-14.035,0.664-28.194,8.837-39.867c8.174-11.674,20.405-19.466,34.441-21.94
				c3.09-0.545,6.231-0.822,9.338-0.822c25.899,0,47.966,18.546,52.473,44.099C347.476,465.69,328.909,489.61,298.464,494.979z
				 M399.173,441.622c-9.318,0-16.896-7.58-16.896-16.897c0-9.316,7.58-16.895,16.896-16.895c9.314,0,16.893,7.58,16.893,16.895
				C416.067,434.043,408.488,441.622,399.173,441.622z M472.788,350.18c-10.607,23.707-24.831,45.229-42.388,64.199
				c-4.347-13.088-16.698-22.558-31.227-22.558c-18.144,0-32.906,14.761-32.906,32.905c0,12.461,6.963,23.326,17.202,28.91
				c-9.039,5.771-18.436,10.899-28.14,15.378c4.015-10.455,5.114-21.975,3.049-33.69c-5.857-33.219-34.556-57.329-68.239-57.329
				c-4.037,0-8.114,0.358-12.118,1.064c-18.246,3.218-34.147,13.348-44.773,28.525c-10.626,15.177-14.706,33.583-11.489,51.829
				c2.083,11.821,7.093,22.183,14.315,30.514c-22.539-1.852-44.426-6.87-65.419-14.986c7.27-6.041,11.907-15.145,11.907-25.313
				c0-18.144-14.761-32.907-32.905-32.907c-16.842,0-30.761,12.72-32.675,29.056c-13.25-9.613-25.54-20.638-36.587-32.766
				c4.062,0.779,8.182,1.2,12.328,1.2c0.002,0,0.002,0,0.004,0c16.62,0,32.466-6.692,44.617-18.843
				c13.101-13.101,20.317-30.52,20.317-49.049s-7.216-35.947-20.317-49.048c-13.1-13.101-30.519-20.317-49.047-20.317
				c-18.527,0-35.947,7.215-49.049,20.317c-5.332,5.333-9.504,11.279-12.563,17.593c-5.346-19.946-8.051-40.527-8.051-61.489
				c0-45.124,12.341-88.034,35.891-125.577c2.255,11.752,8.142,22.737,17.281,31.876c13.1,13.099,30.518,20.315,49.048,20.316h0.006
				c18.524,0,35.941-7.216,49.04-20.317c13.102-13.1,20.318-30.519,20.318-49.047c0-18.528-7.216-35.947-20.317-49.047
				c-8.199-8.199-17.799-13.692-28.259-16.27c34.872-19.236,73.913-29.299,114.353-29.299c3.88,0,7.768,0.098,11.652,0.287
				c-3.463,5.209-5.487,11.454-5.487,18.165c0,18.144,14.762,32.906,32.907,32.906c18.144,0,32.906-14.762,32.906-32.906
				c0-2.611-0.315-5.149-0.892-7.585c8.26,2.592,16.395,5.624,24.345,9.116c0.13,3.772,0.489,7.507,1.051,11.193
				c-7.407,3.331-14.182,8.024-20.198,14.039c-27.044,27.044-27.044,71.05,0,98.096c13.336,13.336,30.928,20.372,48.9,20.371
				c7.001-0.001,14.062-1.069,20.949-3.25c3.162,5.135,6.804,9.943,10.863,14.363c-17.199,12.999-27.541,33.37-27.541,55.324
				c0,38.247,31.116,69.364,69.364,69.364c12.574,0,23.634-3.313,32.721-9.608C484.115,321.037,479.205,335.837,472.788,350.18z
				 M492.363,275.205c-5.096,11.331-15.703,24.276-37.546,24.276c-29.419,0-53.354-23.934-53.354-53.354
				c0-17.887,8.92-34.413,23.59-44.277c15.858,12.19,35.693,19.449,57.194,19.449c2.94,0,5.919-0.144,8.896-0.43
				c1.476,10.759,2.222,21.671,2.222,32.507C493.366,260.712,493.018,267.988,492.363,275.205z"/>
			<path d="M200.557,270.55c4.422,0,8.005-3.584,8.005-8.005c0-4.421-3.583-8.005-8.005-8.005h-31.01
				c-4.422,0-8.005,3.584-8.005,8.005c0,4.421,3.583,8.005,8.005,8.005H200.557z"/>
			<path d="M351.151,262.545c0-4.421-3.583-8.005-8.005-8.005h-31.01c-4.422,0-8.005,3.584-8.005,8.005
				c0,4.421,3.583,8.005,8.005,8.005h31.01C347.567,270.55,351.151,266.966,351.151,262.545z"/>
			<path d="M241.938,163.694c18.144,0,32.906-14.762,32.906-32.907c0-18.144-14.762-32.906-32.906-32.906
				c-18.145,0-32.907,14.762-32.907,32.906C209.031,148.933,223.793,163.694,241.938,163.694z M241.938,113.892
				c9.318,0,16.896,7.58,16.896,16.896s-7.58,16.897-16.896,16.897s-16.897-7.58-16.897-16.897
				C225.041,121.472,232.621,113.892,241.938,113.892z"/>
			<path d="M86.725,191.597c-18.146,0-32.909,14.761-32.909,32.905c0,18.145,14.763,32.907,32.909,32.907
				c18.143,0,32.904-14.762,32.904-32.907C119.628,206.357,104.868,191.597,86.725,191.597z M86.725,241.398
				c-9.318,0-16.9-7.58-16.9-16.897c0-9.316,7.582-16.895,16.9-16.895c9.316,0,16.894,7.579,16.894,16.895
				C103.619,233.818,96.04,241.398,86.725,241.398z"/>
			<circle cx="327.64" cy="224.164" r="14.494"/>
			<path d="M285.164,227.803c-4.422,0-8.005,3.584-8.005,8.005c0,3.531-2.872,6.403-6.404,6.403c-3.532,0-6.404-2.872-6.404-6.403
				c0-4.421-3.583-8.005-8.005-8.005s-8.005,3.584-8.005,8.005c0,3.531-2.872,6.403-6.404,6.403s-6.404-2.872-6.404-6.403
				c0-4.421-3.583-8.005-8.005-8.005s-8.005,3.584-8.005,8.005c0,12.358,10.055,22.412,22.413,22.412
				c5.485,0,10.51-1.986,14.409-5.27c3.899,3.283,8.924,5.27,14.408,5.27c12.358,0,22.413-10.054,22.413-22.412
				C293.169,231.387,289.585,227.803,285.164,227.803z"/>
</svg>
