<?xml version="1.0" encoding="iso-8859-1"?>
<!-- Generator: Adobe Illustrator 19.0.0, SVG Export Plug-In . SVG Version: 6.00 Build 0)  -->
<svg version="1.1" id="Layer_1" xmlns="http://www.w3.org/2000/svg" xmlns:xlink="http://www.w3.org/1999/xlink" x="0px" y="0px"
	 viewBox="0 0 512 512" style="enable-background:new 0 0 512 512;" xml:space="preserve">
<g>
	<g>
		<g>
			<path d="M182.038,142.358c2.037,0,4.075-0.777,5.628-2.332l18.502-18.502c3.109-3.109,3.109-8.149,0-11.257
				c-3.109-3.109-8.149-3.109-11.258,0l-18.502,18.502c-3.109,3.109-3.109,8.149,0,11.257
				C177.963,141.581,180.001,142.358,182.038,142.358z"/>
			<path d="M378.794,204.659c1.554,1.554,3.592,2.332,5.628,2.332c2.037,0,4.074-0.777,5.628-2.332
				c3.109-3.109,3.109-8.149,0-11.258l-18.502-18.502c-3.109-3.109-8.149-3.109-11.257,0c-3.109,3.109-3.109,8.149,0,11.257
				L378.794,204.659z"/>
			<path d="M268.878,153.428c1.554,1.554,3.592,2.332,5.628,2.332c2.037,0,4.074-0.777,5.628-2.332
				c3.109-3.109,3.109-8.149,0-11.257l-18.502-18.502c-3.109-3.109-8.149-3.109-11.258,0c-3.109,3.109-3.109,8.149,0,11.257
				L268.878,153.428z"/>
			<path d="M206.358,195.409c1.554,1.554,3.592,2.332,5.628,2.332c2.037,0,4.074-0.777,5.628-2.332l18.502-18.502
				c3.109-3.109,3.109-8.149,0-11.257c-3.109-3.109-8.149-3.109-11.257,0l-18.502,18.502
				C203.249,187.26,203.249,192.3,206.358,195.409z"/>
			<path d="M295.63,174.9c-3.109,3.109-3.109,8.149,0,11.257c1.554,1.554,3.592,2.332,5.628,2.332c2.037,0,4.074-0.777,5.628-2.332
				l18.502-18.502c3.109-3.109,3.109-8.149,0-11.257c-3.109-3.109-8.149-3.109-11.257,0L295.63,174.9z"/>
			<path d="M301.805,127.699c1.554,1.554,3.592,2.332,5.628,2.332c2.037,0,4.074-0.777,5.628-2.332
				c3.109-3.109,3.109-8.149,0-11.257L294.56,97.94c-3.109-3.109-8.149-3.109-11.257,0c-3.109,3.109-3.109,8.149,0,11.257
				L301.805,127.699z"/>
			<path d="M285.902,257.202c-4.396,0-7.96,3.564-7.96,7.96c0,3.853-3.135,6.988-6.989,6.988c-3.854,0-6.989-3.134-6.989-6.988
				c0-4.396-3.564-7.96-7.96-7.96c-4.396,0-7.96,3.564-7.96,7.96c0,3.853-3.135,6.988-6.988,6.988c-3.854,0-6.988-3.134-6.988-6.988
				c0-4.396-3.564-7.96-7.96-7.96c-4.396,0-7.96,3.564-7.96,7.96c0,12.631,10.277,22.908,22.908,22.908
				c5.713,0,10.932-2.116,14.948-5.587c4.017,3.471,9.236,5.587,14.949,5.587c12.632,0,22.909-10.276,22.909-22.908
				C293.862,260.766,290.298,257.202,285.902,257.202z"/>
			<path d="M346.056,284.941h-32.172c-4.396,0-7.96,3.564-7.96,7.96s3.564,7.96,7.96,7.96h32.172c4.396,0,7.96-3.564,7.96-7.96
				S350.452,284.941,346.056,284.941z"/>
			<path d="M428.552,219.401c1.714-6.023,2.6-12.254,2.6-18.62c0-34.957-26.508-63.84-60.488-67.599
				c-3.11-27.538-23.009-50.762-49.669-58.064c2.653-23.443-7.301-52.066-25.01-69.788C292.565,1.892,288.013,0,283.165,0
				c-9.974,0-18.089,8.115-18.089,18.089c0,6.04-1.479,12.013-4.396,17.845c-7.025-6.221-16.252-10.007-26.351-10.007
				c-8.101,0-15.641,2.439-21.935,6.611l-6.226-6.226c-3.109-3.109-8.149-3.109-11.258,0c-3.109,3.109-3.109,8.149,0,11.257
				l6.227,6.227c-4.174,6.294-6.612,13.833-6.612,21.935c0,2.859,0.31,5.646,0.885,8.336c-28.857,5.776-50.852,29.616-54.087,59.117
				c-33.968,3.762-60.474,32.644-60.474,67.599c0,6.363,0.884,12.595,2.599,18.62c-8.634,5.267-14.411,14.776-14.411,25.608v50.475
				c0,16.529,13.446,29.977,29.975,29.977h0.824l34.706,158.771c3.405,15.57,18.555,27.767,34.494,27.767h173.928
				c15.938,0,31.089-12.197,34.494-27.768l34.706-158.77h0.823c16.528,0,29.975-13.447,29.975-29.977V245.01
				C442.963,234.178,437.186,224.669,428.552,219.401z M212.781,55.439l5.541,5.541c1.554,1.555,3.592,2.332,5.628,2.332
				c2.037,0,4.075-0.777,5.628-2.332c3.109-3.109,3.109-8.149,0-11.257l-5.542-5.542c3.118-1.495,6.609-2.335,10.292-2.335
				c13.17,0,23.884,10.714,23.884,23.884c0,13.169-10.714,23.883-23.884,23.883c-13.169,0-23.883-10.714-23.883-23.883
				C210.446,62.048,211.285,58.557,212.781,55.439z M148.873,148.688c4.396,0,7.96-3.564,7.96-7.96
				c0-26.442,19.562-48.315,45.293-51.644c7.242,9.959,18.976,16.45,32.203,16.45c21.948,0,39.804-17.856,39.804-39.803
				c0-5.581-1.159-10.894-3.241-15.718c6.705-10.123,10.104-20.84,10.104-31.923c0-1.196,0.973-2.169,2.169-2.169
				c0.743,0,1.246,0.348,1.547,0.651c15.907,15.92,24.416,43.47,19.369,62.722c-0.575,2.192-0.188,4.526,1.065,6.415
				c1.251,1.889,3.249,3.155,5.491,3.481c25.387,3.689,44.532,25.847,44.532,51.54c0,4.396,3.574,7.96,7.97,7.96
				c28.724,0,52.094,23.37,52.094,52.094c0,4.879-0.677,9.651-1.989,14.26c-0.086-0.001-0.17-0.006-0.256-0.006H99.013
				c-0.086,0-0.171,0.005-0.257,0.006c-1.311-4.61-1.987-9.383-1.987-14.26C96.77,172.057,120.139,148.688,148.873,148.688z
				 M116.134,325.462h15.054l-12.353,12.354L116.134,325.462z M128.383,381.502l-5.51-25.21l30.306-30.305l40.155,40.155
				l-40.155,40.155L128.383,381.502z M256.002,428.81l28.314,28.314h-56.628L256.002,428.81z M205.173,457.124h-1.167
				l-39.571-39.572l40.155-40.155l40.155,40.155L205.173,457.124z M267.258,417.552l40.155-40.155l40.155,40.155l-39.571,39.571
				h-1.167L267.258,417.552z M277.993,325.462h58.842l-29.421,29.421L277.993,325.462z M296.156,366.14l-40.155,40.156
				l-40.155-40.155l40.155-40.156L296.156,366.14z M204.589,354.885l-29.421-29.421h58.843L204.589,354.885z M134.681,410.314
				l7.239,7.239l-4.642,4.642L134.681,410.314z M141.316,440.671l11.86-11.86l28.314,28.314h-36.578L141.316,440.671z
				 M361.906,480.833c-1.776,8.122-10.627,15.247-18.941,15.247H169.037c-8.313,0-17.165-7.125-18.941-15.247l-1.702-7.789h215.214
				L361.906,480.833z M367.089,457.124h-36.578l28.314-28.314l11.86,11.86L367.089,457.124z M374.724,422.195l-4.642-4.642
				l7.239-7.238L374.724,422.195z M383.619,381.502l-24.794,24.794l-40.155-40.155l40.155-40.155l30.306,30.305L383.619,381.502z
				 M393.168,337.816l-12.353-12.354h15.054L393.168,337.816z M427.043,295.487c0,7.751-6.304,14.056-14.055,14.056H99.013
				c-7.75,0-14.055-6.305-14.055-14.056v-50.475c0-7.75,6.304-14.055,14.055-14.055h313.974c7.75,0,14.055,6.305,14.055,14.055
				V295.487z"/>
			<path d="M150.413,204.66c1.554,1.554,3.592,2.332,5.628,2.332c2.037,0,4.074-0.777,5.628-2.332c3.109-3.109,3.109-8.149,0-11.258
				L143.167,174.9c-3.109-3.109-8.149-3.109-11.257,0c-3.109,3.109-3.109,8.149,0,11.257L150.413,204.66z"/>
			<path d="M198.125,284.941h-32.172c-4.396,0-7.96,3.564-7.96,7.96s3.564,7.96,7.96,7.96h32.172c4.396,0,7.96-3.564,7.96-7.96
				S202.521,284.941,198.125,284.941z"/>
			<circle cx="329.971" cy="253.082" r="15.038"/>
			<circle cx="182.038" cy="253.082" r="15.038"/>
		</g>
	</g>
</g>
<g>
</g>
<g>
</g>
<g>
</g>
<g>
</g>
<g>
</g>
<g>
</g>
<g>
</g>
<g>
</g>
<g>
</g>
<g>
</g>
<g>
</g>
<g>
</g>
<g>
</g>
<g>
</g>
<g>
</g>
</svg>
