<?xml version="1.0" encoding="iso-8859-1"?>
<!-- Generator: Adobe Illustrator 19.0.0, SVG Export Plug-In . SVG Version: 6.00 Build 0)  -->
<svg version="1.1" id="Layer_1" xmlns="http://www.w3.org/2000/svg" xmlns:xlink="http://www.w3.org/1999/xlink" x="0px" y="0px"
	 viewBox="0 0 512.001 512.001" style="enable-background:new 0 0 512.001 512.001;" xml:space="preserve">
<g>
	<g>
		<g>
			<path d="M170.128,397.714h31.233c4.454,0,8.063-3.61,8.063-8.063c0-4.453-3.609-8.063-8.063-8.063h-31.233
				c-4.454,0-8.063,3.61-8.063,8.063C162.066,394.105,165.674,397.714,170.128,397.714z"/>
			<path d="M486.618,197.834h-34.132c-1.509-12.207-6.121-26.849-12.592-39.425c-10.243-19.907-23.278-30.871-36.705-30.871
				c-13.426,0-26.46,10.964-36.704,30.871c-6.469,12.575-11.081,27.217-12.592,39.425h-27.935v-75.973
				c0-5.441-2.494-10.308-6.399-13.523c4.008-5.218,6.399-11.743,6.399-18.818c0-7.115-2.628-23.495-7.027-38.588
				c-6.491-22.279-14.095-32.656-23.926-32.656c-9.831,0-17.435,10.377-23.93,32.655c-4.399,15.093-7.027,31.473-7.027,38.588
				c0,7.075,2.392,13.599,6.399,18.818c-3.904,3.214-6.399,8.082-6.399,13.523v75.973h-27.933
				c-1.509-12.207-6.121-26.849-12.592-39.425c-10.243-19.908-23.277-30.871-36.704-30.871c-13.426,0-26.461,10.964-36.705,30.871
				c-6.47,12.575-11.082,27.218-12.592,39.425H121.72c-10.337-22.388-32.937-37.066-57.927-37.066
				C28.618,160.766,0,189.383,0,224.558c0,18.609,7.902,35.893,21.819,48.026v195.194c0,14.308,11.64,25.947,25.948,25.947h438.284
				c14.308,0,25.95-11.64,25.95-25.947v-244.56C512,209.221,500.615,197.834,486.618,197.834z M403.19,143.663
				c14.043,0,29.649,31.858,33.03,54.171h-66.056C373.542,175.52,389.147,143.663,403.19,143.663z M285.628,58.758
				c3.775-14.004,7.372-20.721,9.377-23.343c2.005,2.622,5.601,9.339,9.376,23.343c3.369,12.499,5.453,25.699,5.453,30.761
				c0,8.178-6.653,14.831-14.83,14.831c-8.178,0-14.832-6.653-14.832-14.831C280.173,84.457,282.259,71.257,285.628,58.758z
				 M280.173,121.86c0-0.737,0.647-1.384,1.385-1.384h26.893c0.737,0,1.383,0.647,1.383,1.384v14.411h-29.661V121.86z
				 M280.173,152.396h29.662v17.917h-29.662V152.396z M280.173,186.439h29.662v11.395h-29.662V186.439z M186.82,143.663
				c14.043,0,29.648,31.858,33.027,54.171h-66.055C157.171,175.52,172.778,143.663,186.82,143.663z M79.241,267.008v210.593H47.768
				c-5.416,0-9.823-4.406-9.823-9.822V268.77c0-2.505-1.164-4.868-3.152-6.394c-11.864-9.113-18.667-22.896-18.667-37.818
				c0-26.284,21.384-47.667,47.669-47.667c20.127,0,38.178,12.741,44.917,31.704c1.143,3.215,4.186,5.362,7.597,5.362h370.31
				c5.104,0,9.257,4.154,9.257,9.259v17.843H105.19C90.881,241.06,79.241,252.7,79.241,267.008z M495.875,467.778
				c0,5.416-4.408,9.822-9.824,9.822H95.366v-43.409h400.509V467.778z M495.875,418.067H95.366V316.269h400.509V418.067z
				 M495.876,300.144h-0.001H95.366v-33.136c0-5.417,4.407-9.823,9.824-9.823h390.686V300.144z"/>
			<path d="M395.445,397.714h31.234c4.454,0,8.063-3.61,8.063-8.063c0-4.453-3.609-8.063-8.063-8.063h-31.234
				c-4.454,0-8.063,3.61-8.063,8.063C387.382,394.105,390.992,397.714,395.445,397.714z"/>
			<circle cx="185.744" cy="346.918" r="14.599"/>
			<circle cx="411.062" cy="346.918" r="14.599"/>
			<path d="M277.228,387.852c7.095,0,13.539-2.824,18.279-7.4c4.741,4.576,11.184,7.4,18.278,7.4
				c14.524,0,26.341-11.816,26.341-26.341c0-4.453-3.609-8.063-8.063-8.063c-4.454,0-8.063,3.61-8.063,8.063
				c0,5.633-4.583,10.216-10.216,10.216s-10.216-4.583-10.216-10.216c0-4.453-3.609-8.063-8.063-8.063
				c-4.454,0-8.063,3.61-8.063,8.063c0,5.633-4.584,10.216-10.217,10.216c-5.633,0-10.216-4.583-10.216-10.216
				c0-4.453-3.609-8.063-8.063-8.063s-8.063,3.61-8.063,8.063C250.887,376.035,262.703,387.852,277.228,387.852z"/>
		</g>
	</g>
</g>
<g>
</g>
<g>
</g>
<g>
</g>
<g>
</g>
<g>
</g>
<g>
</g>
<g>
</g>
<g>
</g>
<g>
</g>
<g>
</g>
<g>
</g>
<g>
</g>
<g>
</g>
<g>
</g>
<g>
</g>
</svg>
