<svg       
	version='1.1'
    id='Layer_1'
    xmlns='http://www.w3.org/2000/svg'
    xmlnsXlink='http://www.w3.org/1999/xlink'
    x='0px'
    y='0px'
    viewBox='0 0 512 512'
    xmlSpace='preserve'
	>
			<path d="M292.102,377.153c-4.397,0-7.962,3.565-7.962,7.962c0,5.563-4.526,10.089-10.089,10.089s-10.089-4.526-10.089-10.089
				c0-4.397-3.565-7.962-7.962-7.962c-4.397,0-7.962,3.565-7.962,7.962c0,5.563-4.526,10.089-10.089,10.089
				c-5.563,0-10.089-4.526-10.089-10.089c0-4.397-3.565-7.962-7.962-7.962s-7.962,3.565-7.962,7.962
				c0,14.344,11.669,26.013,26.013,26.013c7.006,0,13.369-2.789,18.051-7.309c4.682,4.52,11.045,7.309,18.051,7.309
				c14.344,0,26.013-11.669,26.013-26.013C300.064,380.718,296.499,377.153,292.102,377.153z"/>
			<circle cx="144.744" cy="370.705" r="14.417"/>
			<path d="M352.839,386.15c4.397,0,7.962-3.565,7.962-7.962c0-3.56,2.896-6.455,6.456-6.455c3.56,0,6.455,2.896,6.455,6.455
				c0,4.397,3.565,7.962,7.962,7.962s7.962-3.565,7.962-7.962c0-12.34-10.04-22.379-22.379-22.379
				c-12.34,0-22.38,10.04-22.38,22.379C344.877,382.585,348.442,386.15,352.839,386.15z"/>
			<path d="M160.166,405.165h-30.844c-4.397,0-7.962,3.565-7.962,7.962s3.565,7.962,7.962,7.962h30.844
				c4.397,0,7.962-3.565,7.962-7.962S164.563,405.165,160.166,405.165z"/>
			<path d="M382.678,405.165h-30.844c-4.397,0-7.962,3.565-7.962,7.962s3.565,7.962,7.962,7.962h30.844
				c4.397,0,7.962-3.565,7.962-7.962S387.075,405.165,382.678,405.165z"/>
			<path d="M215.737,180.306l-22.093,22.094c-3.109,3.109-3.109,8.151,0,11.26c1.554,1.554,3.593,2.332,5.63,2.332
				s4.076-0.777,5.63-2.332l22.093-22.093c3.109-3.109,3.109-8.151,0-11.261C223.888,177.198,218.846,177.198,215.737,180.306z"/>
			<path d="M330.701,68.242l-22.093,22.094c-3.109,3.109-3.109,8.151,0,11.26c1.554,1.554,3.593,2.332,5.63,2.332
				s4.076-0.777,5.63-2.332l22.093-22.094c3.109-3.109,3.109-8.151,0-11.26C338.852,65.132,333.811,65.132,330.701,68.242z"/>
			<path d="M388.937,195.838c-3.109-3.109-8.151-3.109-11.261,0c-3.109,3.109-3.109,8.151,0,11.26l22.094,22.094
				c1.554,1.554,3.592,2.332,5.63,2.332c2.037,0,4.076-0.777,5.63-2.332c3.109-3.109,3.109-8.151,0-11.261L388.937,195.838z"/>
			<path d="M385.38,153.908c3.109-3.109,3.109-8.15,0-11.259l-22.093-22.094c-3.109-3.111-8.151-3.109-11.259,0
				c-3.109,3.109-3.109,8.15,0,11.26l22.093,22.094c1.554,1.555,3.592,2.332,5.63,2.332
				C381.787,156.24,383.826,155.462,385.38,153.908z"/>
			<path d="M113.8,195.838l-22.093,22.095c-3.109,3.109-3.108,8.151,0.001,11.261c1.555,1.554,3.593,2.331,5.63,2.331
				s4.076-0.777,5.631-2.332l22.093-22.095c3.109-3.109,3.108-8.151-0.001-11.261C121.951,192.728,116.911,192.728,113.8,195.838z"
				/>
			<path d="M457.894,291.544c-0.44-13.037-2.196-25.251-5.225-36.471c17.075-10.653,28.467-29.599,28.467-51.165
				c0-30.519-22.798-55.813-52.259-59.744c0.268-2.301,0.401-4.616,0.401-6.932c0-24.502-14.543-46.14-36.732-55.505
				c-2.167-30.333-24.002-64.76-32.699-73.458C354.515,2.936,347.425,0,339.883,0s-14.631,2.936-19.965,8.27
				c-5.333,5.332-8.269,12.423-8.269,19.94c-0.05,1.786-2.734,14.242-13.381,26.405c-12.977,14.824-31.541,22.342-55.174,22.342
				H142.997c-33.236,0-60.274,27.039-60.274,60.274c0,2.318,0.134,4.632,0.401,6.932c-29.462,3.93-52.259,29.224-52.259,59.744
				c0,21.566,11.392,40.512,28.467,51.165c-3.029,11.22-4.786,23.433-5.224,36.471c-2.472,1.021-4.667,2.588-6.371,4.652
				c-3.145,3.81-4.382,8.926-3.395,14.036l35.689,184.759C81.874,504.527,90.927,512,100.642,512h310.716
				c9.715,0,18.768-7.473,20.611-17.011l35.69-184.759c0.987-5.11-0.251-10.224-3.395-14.036
				C462.56,294.132,460.366,292.565,457.894,291.544z M72.592,372.525l-9.23-47.781c11.21,3.543,19.36,14.039,19.36,26.404
				C82.722,359.581,78.867,367.362,72.592,372.525z M95.485,491.033l-9.492-49.141c11.95,3.066,20.808,13.928,20.808,26.821
				C106.801,477.661,102.503,485.892,95.485,491.033z M229.487,496.076c3.429-11.396,14.014-19.724,26.514-19.724
				c12.5,0,23.085,8.327,26.514,19.724H229.487z M416.334,491.968c-0.4,2.072-2.865,4.107-4.977,4.107h-32.859
				c-1.197-3.137-1.833-6.48-1.833-9.862c0-15.265,12.42-27.685,27.686-27.685c6.382,0,12.388,2.133,17.273,6.06L416.334,491.968z
				 M436.659,386.748c-8.6-4.785-14.302-13.98-14.302-24.206c0-14.113,10.618-25.786,24.284-27.468L436.659,386.748z
				 M452.024,307.21l-2.266,11.73c-23.915,0.154-43.325,19.652-43.325,43.602c0,17.859,11.026,33.76,27.105,40.363l-8.667,44.868
				c-6.27-3.344-13.322-5.168-20.521-5.168c-24.047,0-43.61,19.564-43.61,43.609c0,3.333,0.407,6.639,1.155,9.862h-63.028
				c-3.754-20.256-21.541-35.648-42.868-35.648s-39.114,15.392-42.868,35.648H113.071c6.122-7.595,9.653-17.183,9.653-27.363
				c0-22.81-17.608-41.575-39.943-43.445l-6.917-35.807c13.86-7.541,22.783-22.184,22.783-38.314
				c0-22.333-16.879-40.789-38.549-43.307l-0.122-0.63c-0.094-0.493-0.027-0.795,0.042-0.879c0.069-0.084,0.354-0.208,0.856-0.208
				h152.258c3.754,20.256,21.541,35.647,42.868,35.647s39.114-15.392,42.868-35.647h152.258c0.502,0,0.787,0.124,0.856,0.208
				C452.052,306.415,452.118,306.717,452.024,307.21z M70.117,290.198c0.452-10.145,1.779-19.674,3.961-28.493
				c5.413,1.601,11.136,2.475,17.061,2.475H420.86c5.926,0,11.648-0.874,17.062-2.475c2.183,8.819,3.51,18.349,3.961,28.493H70.117z
				 M282.513,306.123c-3.429,11.395-14.014,19.723-26.513,19.723c-12.498,0-23.084-8.327-26.513-19.723H282.513z M420.861,248.257
				H91.14c-24.454,0-44.35-19.895-44.35-44.349c0-24.455,19.896-44.35,44.35-44.35h1.558c0.166,0,0.328-0.019,0.492-0.029
				c0.189,0.014,0.377,0.029,0.57,0.029h14.625c4.397,0,7.962-3.565,7.962-7.962s-3.565-7.962-7.962-7.962h-9.263
				c-0.31-2.121-0.476-4.26-0.476-6.402c0-24.455,19.896-44.35,44.35-44.35h100.098c35.658,0,56.372-15.302,67.471-28.138
				c12.851-14.864,17.008-31.015,17.008-36.509c0-3.288,1.28-6.379,3.605-8.704c2.325-2.324,5.416-3.605,8.704-3.605
				s6.379,1.28,8.703,3.604c6.67,6.671,24.524,35.543,27.711,59.844h-5.11c-4.397,0-7.962,3.565-7.962,7.962
				s3.565,7.962,7.962,7.962h12.261c17.933,6.162,29.905,22.864,29.905,41.934c0,2.142-0.165,4.28-0.476,6.402h-8.531
				c-4.397,0-7.962,3.565-7.962,7.962s3.565,7.962,7.962,7.962h13.563c0.253,0,0.501-0.015,0.747-0.038
				c0.214,0.018,0.428,0.038,0.645,0.038h1.558c24.454,0,44.35,19.896,44.35,44.35C465.211,228.361,445.316,248.257,420.861,248.257
				z"/>
			<path d="M218.01,109.507l-22.093,22.095c-3.109,3.109-3.108,8.151,0.001,11.261c1.555,1.554,3.593,2.331,5.63,2.331
				s4.076-0.777,5.631-2.332l22.093-22.095c3.109-3.109,3.108-8.151-0.001-11.261C226.161,106.397,221.119,106.397,218.01,109.507z"
				/>
			<path d="M141.438,134.918c-3.109-3.109-8.151-3.109-11.26,0c-3.109,3.109-3.109,8.151,0,11.259l22.093,22.094
				c1.554,1.554,3.593,2.332,5.63,2.332s4.076-0.777,5.63-2.332c3.109-3.109,3.109-8.151,0-11.261L141.438,134.918z"/>
			<path d="M291.648,167.286c2.037,0,4.076-0.777,5.63-2.332c3.109-3.109,3.109-8.151,0-11.261l-22.093-22.092
				c-3.109-3.111-8.151-3.109-11.26,0c-3.109,3.109-3.109,8.151,0,11.26l22.093,22.092
				C287.572,166.509,289.61,167.286,291.648,167.286z"/>
			<path d="M300.86,195.838l-22.094,22.093c-3.109,3.109-3.109,8.151,0,11.261c1.554,1.555,3.593,2.332,5.63,2.332
				s4.076-0.777,5.63-2.332l22.094-22.094c3.109-3.109,3.109-8.151,0-11.26C309.011,192.728,303.97,192.728,300.86,195.838z"/>
</svg>
