<?xml version="1.0" encoding="iso-8859-1"?>
<!-- Generator: Adobe Illustrator 19.0.0, SVG Export Plug-In . SVG Version: 6.00 Build 0)  -->
<svg version="1.1" id="Layer_1" xmlns="http://www.w3.org/2000/svg" xmlns:xlink="http://www.w3.org/1999/xlink" x="0px" y="0px"
	 viewBox="0 0 512 512" style="enable-background:new 0 0 512 512;" xml:space="preserve">
<g>
	<g>
		<g>
			<path d="M311.582,110.988c4.438,0,8.036-3.598,8.036-8.036V89.341c0-4.438-3.598-8.036-8.036-8.036
				c-4.438,0-8.036,3.598-8.036,8.036v13.611C303.546,107.391,307.144,110.988,311.582,110.988z"/>
			<path d="M237.781,172.193c7.071,0,13.493-2.815,18.218-7.377c4.725,4.562,11.148,7.377,18.218,7.377
				c14.477,0,26.254-11.778,26.254-26.254c0-4.438-3.598-8.036-8.036-8.036s-8.036,3.598-8.036,8.036
				c0,5.614-4.568,10.182-10.182,10.182c-5.614,0-10.182-4.568-10.182-10.182c0-4.438-3.598-8.036-8.036-8.036
				s-8.036,3.598-8.036,8.036c0,5.614-4.568,10.182-10.182,10.182c-5.615,0-10.182-4.568-10.182-10.182
				c0-4.438-3.598-8.036-8.036-8.036s-8.036,3.598-8.036,8.036C211.527,160.415,223.305,172.193,237.781,172.193z"/>
			<path d="M256.004,97.377c4.438,0,8.036-3.598,8.036-8.036V75.729c0-4.438-3.598-8.036-8.036-8.036
				c-4.438,0-8.036,3.598-8.036,8.036v13.612C247.968,93.779,251.566,97.377,256.004,97.377z"/>
			<path d="M440.752,136.155c4.438,0,8.036-3.598,8.036-8.036v-13.611c0-4.438-3.598-8.036-8.036-8.036s-8.036,3.598-8.036,8.036
				v13.611C432.716,132.557,436.314,136.155,440.752,136.155z"/>
			<path d="M352.723,182.247h31.13c4.438,0,8.036-3.598,8.036-8.036s-3.598-8.036-8.036-8.036h-31.13
				c-4.438,0-8.036,3.598-8.036,8.036S348.285,182.247,352.723,182.247z"/>
			<circle cx="368.288" cy="131.394" r="14.551"/>
			<path d="M79.283,121.313v-13.611c0-4.438-3.598-8.036-8.036-8.036c-4.438,0-8.036,3.598-8.036,8.036v13.611
				c0,4.438,3.598,8.036,8.036,8.036C75.685,129.349,79.283,125.751,79.283,121.313z"/>
			<path d="M492.504,371.153c5.888-3.82,9.8-10.439,9.8-17.965v-41.385c0-11.809-9.607-21.414-21.414-21.414h-4.396
				c0.186-1.078,0.304-2.18,0.304-3.311v-19.738c0-4.238-1.383-8.15-3.7-11.343c2.317-3.193,3.7-7.105,3.7-11.343v-19.737
				c0-4.16-1.331-8.01-3.571-11.171C496.223,201.915,512,177.954,512,150.362c0-18.918-7.325-36.712-20.632-50.142
				c-0.074-0.08-0.15-0.16-0.227-0.237c-32.886-32.884-127.38-54.98-235.137-54.98c-107.756,0-202.251,22.096-235.137,54.981
				C7.411,113.44,0,131.331,0,150.363c0.001,27.592,15.779,51.555,38.779,63.386c-2.24,3.161-3.57,7.008-3.57,11.169v19.737
				c0,4.238,1.383,8.15,3.7,11.343c-2.316,3.193-3.7,7.105-3.7,11.343v19.739c0,1.13,0.117,2.232,0.304,3.311h-4.396
				c-11.809,0-21.414,9.607-21.414,21.414v41.385c0,7.525,3.91,14.142,9.796,17.963C7.591,381.107,0,396.062,0,412.762
				c0.001,29.905,24.331,54.234,54.234,54.235l403.531-0.001c29.905,0,54.233-24.33,54.233-54.234
				C512,396.063,504.41,381.109,492.504,371.153z M16.072,150.362c0-14.737,5.74-28.593,16.161-39.015
				c29.6-29.599,121.619-50.272,223.771-50.272c101.878,0,193.679,20.564,223.534,50.036c0.116,0.126,0.237,0.25,0.361,0.369
				c10.337,10.407,16.029,24.209,16.029,38.882c0,30.423-24.752,55.174-55.175,55.176H71.248
				C40.825,205.537,16.073,180.785,16.072,150.362z M290.099,290.388c0.186-1.078,0.304-2.18,0.304-3.311v-19.739
				c0-1.129-0.117-2.23-0.303-3.307h167.319c1.793,0,3.307,1.514,3.307,3.307v19.739c0,1.792-1.514,3.305-3.307,3.305v0.005H290.099
				z M379.706,306.459v0.001l-32.052,32.052c-1.269,1.269-3.41,1.269-4.678,0.001l-32.053-32.054H379.706z M457.419,247.96H232.837
				c-1.793,0-3.307-1.514-3.307-3.307v-19.737c0-1.793,1.514-3.307,3.307-3.307h224.582c1.793,0,3.307,1.514,3.307,3.307v19.737
				C460.725,246.446,459.21,247.96,457.419,247.96z M54.588,290.383c-1.793,0-3.307-1.514-3.307-3.305v-19.738
				c0-1.793,1.514-3.307,3.307-3.307h216.437c1.793,0,3.307,1.514,3.307,3.307v19.738c0,1.792-1.514,3.305-3.307,3.305H54.588z
				 M201.083,306.46l-32.052,32.053c-1.269,1.268-3.41,1.268-4.678,0.001L132.3,306.46H201.083z M213.761,247.96H54.588
				c-1.793,0-3.307-1.514-3.307-3.307v-19.737c0-1.793,1.514-3.307,3.307-3.307h159.173c-0.186,1.077-0.303,2.177-0.303,3.307
				v19.737C213.458,245.783,213.575,246.883,213.761,247.96z M25.775,311.802c0-2.896,2.447-5.342,5.342-5.342h78.456l43.417,43.419
				c3.778,3.777,8.74,5.666,13.702,5.666c4.962,0,9.925-1.889,13.704-5.666l43.417-43.418h64.385l43.417,43.418
				c3.777,3.778,8.739,5.666,13.702,5.666c4.962,0,9.926-1.889,13.704-5.666l43.417-43.418h78.454c2.896,0,5.342,2.446,5.342,5.342
				v41.385c0,2.896-2.446,5.342-5.342,5.342h-23.04c-0.028,0-0.055-0.002-0.083-0.002l-403.536,0.002H31.117
				c-2.896,0-5.342-2.446-5.342-5.342V311.802z M457.766,450.923l-403.531,0.001c-21.041-0.001-38.161-17.121-38.162-38.163
				c0-21.04,17.118-38.158,38.162-38.158h403.614c21.004,0.045,38.079,17.145,38.079,38.158
				C495.928,433.804,478.808,450.923,457.766,450.923z"/>
			<path d="M128.147,182.247h31.13c4.438,0,8.036-3.598,8.036-8.036s-3.598-8.036-8.036-8.036h-31.13
				c-4.438,0-8.036,3.598-8.036,8.036S123.708,182.247,128.147,182.247z"/>
			<path d="M199.29,110.988c4.438,0,8.036-3.598,8.036-8.036V89.341c0-4.438-3.598-8.036-8.036-8.036s-8.036,3.598-8.036,8.036
				v13.611C191.254,107.391,194.852,110.988,199.29,110.988z"/>
			<circle cx="143.711" cy="131.394" r="14.551"/>
		</g>
	</g>
</g>
<g>
</g>
<g>
</g>
<g>
</g>
<g>
</g>
<g>
</g>
<g>
</g>
<g>
</g>
<g>
</g>
<g>
</g>
<g>
</g>
<g>
</g>
<g>
</g>
<g>
</g>
<g>
</g>
<g>
</g>
</svg>
