<?xml version="1.0" encoding="iso-8859-1"?>
<!-- Generator: Adobe Illustrator 19.0.0, SVG Export Plug-In . SVG Version: 6.00 Build 0)  -->
<svg version="1.1" id="Layer_1" xmlns="http://www.w3.org/2000/svg" xmlns:xlink="http://www.w3.org/1999/xlink" x="0px" y="0px"
	 viewBox="0 0 512.001 512.001" style="enable-background:new 0 0 512.001 512.001;" xml:space="preserve">
<g>
	<g>
		<g>
			<path d="M341.592,352.928c0,4.434,3.595,8.029,8.029,8.029h30.134c4.434,0,8.029-3.595,8.029-8.029
				c0-4.434-3.595-8.029-8.029-8.029h-30.134C345.187,344.899,341.592,348.494,341.592,352.928z"/>
			<circle cx="147.309" cy="311.484" r="14.085"/>
			<circle cx="364.689" cy="311.483" r="14.085"/>
			<path d="M496.832,435.394l-34.25-63.048L283.378,20.573C274.169,2.68,262.281,0.002,256.009,0
				c-6.266,0.002-18.153,2.68-27.378,20.603L49.576,372.079c-0.035,0.061-0.076,0.119-0.11,0.181l-34.297,63.134
				c-1.681,3.003-2.082,6.645-1.098,10.013c0.773,2.646,2.744,6.353,7.75,8.982c71.747,37.689,152.725,57.611,234.176,57.611h0.001
				h0.003c81.454,0,162.433-19.922,234.18-57.611c5.006-2.629,6.978-6.336,7.75-8.982
				C498.915,442.041,498.513,438.397,496.832,435.394z M444.738,372.694c-6.896,3.574-13.892,6.95-20.981,10.12
				c6.408-5.84,11.716-12.888,15.529-20.82L444.738,372.694z M429.066,341.929c-4.408,24.464-25.936,42.624-51.044,42.624
				c-28.61,0-51.884-23.276-51.884-51.885c0-28.61,23.276-51.884,51.884-51.884c7.807,0,15.537,1.786,22.518,5.151L429.066,341.929z
				 M366.916,219.933c-9.138,7.265-20.375,11.22-32.207,11.22c-28.61,0-51.885-23.276-51.885-51.885
				c0-23.652,15.639-43.824,37.92-49.971L366.916,219.933z M242.923,27.922c3.822-7.427,8.717-11.861,13.085-11.863
				c4.376,0.002,9.269,4.437,13.076,11.833l16.465,32.32c0.002,0.164,0.013,0.327,0.013,0.491c0,28.61-23.276,51.884-51.884,51.884
				c-10.494,0-20.68-3.194-29.266-9.071L242.923,27.922z M179.976,151.485c3.369-0.677,6.797-1.019,10.23-1.019
				c28.61,0,51.885,23.276,51.885,51.885s-23.276,51.886-51.885,51.886c-20.242,0-38.77-12.031-47.157-30.264L179.976,151.485z
				 M134.372,241.002c12.525,17.978,33.373,29.293,55.833,29.293c37.465,0,67.944-30.48,67.944-67.944s-30.48-67.945-67.944-67.945
				c-0.514,0-1.028,0.014-1.543,0.026l8.414-16.516c10.872,6.962,23.554,10.731,36.602,10.731c29.355,0,54.417-18.715,63.893-44.839
				l15.769,30.953c-27.525,9.014-46.573,34.642-46.573,64.506c0,37.465,30.48,67.945,67.945,67.945
				c14.404,0,28.135-4.476,39.611-12.747l15.987,31.383c-4.042-0.742-8.157-1.124-12.286-1.124
				c-37.465,0-67.943,30.48-67.943,67.943c0,36.9,29.573,67.001,66.26,67.902c-24.584,7.509-49.895,12.724-75.539,15.535
				c-9.848-26.228-35.079-44.018-63.597-44.018c-26.266,0-50.08,15.255-61.276,38.587c-13.59-2.695-27.032-6.064-40.262-10.104
				c36.685-0.903,66.255-31.003,66.255-67.902c0-37.465-30.48-67.943-67.944-67.943c-4.119,0-8.224,0.381-12.257,1.12
				L134.372,241.002z M283.993,417.589c-9.305,0.636-18.64,0.968-27.99,0.968c-21.3,0-42.531-1.664-63.472-4.932
				c9.217-15.547,26.145-25.478,44.669-25.478C257.435,388.147,275.5,399.871,283.993,417.589z M111.492,285.917
				c6.974-3.354,14.691-5.135,22.484-5.135c28.61,0,51.886,23.276,51.886,51.884c0,28.61-23.276,51.885-51.886,51.885
				c-25.089,0-46.614-18.144-51.035-42.587L111.492,285.917z M72.723,362.019c3.813,7.921,9.118,14.962,15.519,20.794
				c-7.082-3.166-14.072-6.539-20.962-10.111L72.723,362.019z M256.001,495.941c-78.406,0-156.344-19.058-225.497-55.133
				l29.278-53.896c60.225,31.23,127.89,47.703,196.223,47.703c68.328,0,135.991-16.472,196.216-47.703l29.278,53.896
				C412.345,476.883,334.406,495.941,256.001,495.941z"/>
			<path d="M238.363,351.226c6.826,0,13.033-2.683,17.636-7.044c4.601,4.362,10.809,7.044,17.634,7.044
				c14.151,0,25.664-11.512,25.664-25.663c0-4.434-3.595-8.029-8.029-8.029c-4.434,0-8.029,3.595-8.029,8.029
				c0,5.296-4.309,9.604-9.605,9.604c-5.296,0-9.604-4.308-9.604-9.604c0-4.434-3.595-8.029-8.029-8.029
				c-4.434,0-8.029,3.595-8.029,8.029c0,5.296-4.309,9.604-9.607,9.604c-5.296,0-9.604-4.308-9.604-9.604
				c0-4.434-3.595-8.029-8.029-8.029c-4.434,0-8.03,3.595-8.03,8.029C212.7,339.713,224.212,351.226,238.363,351.226z"/>
			<path d="M132.241,360.958h30.134c4.434,0,8.029-3.595,8.029-8.029c0-4.434-3.595-8.029-8.029-8.029h-30.134
				c-4.434,0-8.029,3.595-8.029,8.029C124.211,357.363,127.807,360.958,132.241,360.958z"/>
		</g>
	</g>
</g>
<g>
</g>
<g>
</g>
<g>
</g>
<g>
</g>
<g>
</g>
<g>
</g>
<g>
</g>
<g>
</g>
<g>
</g>
<g>
</g>
<g>
</g>
<g>
</g>
<g>
</g>
<g>
</g>
<g>
</g>
</svg>
