<?xml version="1.0" encoding="iso-8859-1"?>
<!-- Generator: Adobe Illustrator 19.0.0, SVG Export Plug-In . SVG Version: 6.00 Build 0)  -->
<svg version="1.1" id="Layer_1" xmlns="http://www.w3.org/2000/svg" xmlns:xlink="http://www.w3.org/1999/xlink" x="0px" y="0px"
	 viewBox="0 0 512.002 512.002" style="enable-background:new 0 0 512.002 512.002;" xml:space="preserve">
<g>
	<g>
		<g>
			<path d="M346.911,211.251h-32.473c-4.439,0-8.036,3.597-8.036,8.036c0,4.439,3.597,8.036,8.036,8.036h32.473
				c4.439,0,8.036-3.597,8.036-8.036C354.948,214.849,351.35,211.251,346.911,211.251z"/>
			<path d="M384.005,466.923l4.965-14.427c2.125-6.175,3.789-16.126,3.789-22.652v-266.34c0-6.527-1.664-16.477-3.789-22.652
				l-4.964-14.425c8.983-3.206,15.43-11.797,15.43-21.866c0-12.797-10.413-23.209-23.212-23.209h-16.45
				c0.221-1.804,0.344-3.627,0.344-5.467V44.389C360.12,19.913,340.207,0,315.732,0c-24.476,0-44.388,19.913-44.388,44.389v31.496
				c0,1.84,0.123,3.663,0.344,5.467H135.778c-12.798,0-23.212,10.412-23.212,23.209c0,10.068,6.445,18.655,15.425,21.864
				l-4.964,14.426c-2.125,6.172-3.79,16.122-3.79,22.653v266.341c0,6.531,1.664,16.481,3.789,22.652l4.965,14.429
				c-8.979,3.208-15.426,11.798-15.426,21.866c0,12.797,10.412,23.209,23.212,23.209h240.447c12.798,0,23.212-10.412,23.212-23.209
				C399.438,478.72,392.989,470.129,384.005,466.923z M315.733,16.073c15.612,0,28.315,12.702,28.315,28.316v31.496
				c0,1.853-0.178,3.68-0.526,5.467h-55.577c-0.348-1.787-0.526-3.613-0.526-5.467V44.389h-0.001
				C287.417,28.776,300.12,16.073,315.733,16.073z M376.226,495.927H135.778c-3.936,0-7.139-3.201-7.139-7.136
				c0-3.938,3.202-7.141,7.139-7.141h240.447c3.937,0,7.139,3.203,7.139,7.141C383.365,492.726,380.162,495.927,376.226,495.927z
				 M298.572,344.585c35.647-31.502,61.467-63.081,78.115-95.65v22.018c-45.018,82.922-134.465,143.92-215.365,194.625h-16.794
				l-3.819-11.099c9.138-6.165,20.31-13.145,32.939-21.035C210.7,410.296,256.812,381.492,298.572,344.585z M230.842,350.011
				c0-14.121,11.488-25.609,25.609-25.609c10.289,0,19.331,6.04,23.379,15.142c-12.846,10.89-26.059,21.06-39.234,30.565
				C234.499,365.296,230.842,357.935,230.842,350.011z M287.885,396.694c37.172-30.668,65.931-61.098,87.191-92.321
				c-17.39,54.854-62.357,107.673-137.181,161.204h-46.507C222.461,445.691,256.078,422.936,287.885,396.694z M333.745,403.492
				c17.964-19.973,32.306-40.45,42.942-61.211v87.564c0,4.768-1.362,12.91-2.915,17.422l-6.302,18.311H265
				C292.443,444.704,315.062,424.264,333.745,403.492z M292.278,328.651c-7.345-12.377-20.773-20.323-35.827-20.323
				c-22.983,0-41.682,18.698-41.682,41.682c0,11.294,4.562,21.885,12.352,29.603c-21.792,15.073-43.087,28.39-61.989,40.198
				c-10.817,6.758-20.578,12.856-29.013,18.412c-0.494-3.053-0.807-6.099-0.807-8.378V163.503c0-4.772,1.362-12.912,2.915-17.422
				l6.301-18.309h222.946l6.301,18.309c1.553,4.512,2.915,12.654,2.915,17.422v41.956
				C364.69,247.768,337.054,288.123,292.278,328.651z M376.226,111.699H135.778c-3.936,0-7.139-3.202-7.139-7.139
				c0-3.936,3.202-7.136,7.139-7.136h240.447c3.937,0,7.139,3.201,7.139,7.136C383.365,108.497,380.162,111.699,376.226,111.699z"/>
			<path d="M315.732,65.247c11.501,0,20.857-9.357,20.857-20.857c0-11.501-9.356-20.857-20.857-20.857
				c-11.502,0-20.857,9.356-20.857,20.857S304.231,65.247,315.732,65.247z M315.732,39.605c2.638,0,4.784,2.146,4.784,4.784
				s-2.146,4.784-4.784,4.784s-4.784-2.146-4.784-4.784S313.095,39.605,315.732,39.605z"/>
			<circle cx="181.326" cy="179.085" r="15.183"/>
			<path d="M183.742,344.039c-4.438,0-8.036,3.597-8.036,8.036v31.753c0,4.439,3.598,8.036,8.036,8.036
				c4.438,0,8.036-3.597,8.036-8.036v-31.753C191.779,347.638,188.18,344.039,183.742,344.039z"/>
			<path d="M197.566,211.251h-32.481c-4.438,0-8.036,3.597-8.036,8.036c0,4.439,3.598,8.036,8.036,8.036h32.481
				c4.438,0,8.036-3.597,8.036-8.036C205.603,214.849,202.004,211.251,197.566,211.251z"/>
			<path d="M315.498,190.54c4.439,0,8.036-3.597,8.036-8.036c0-3.938,3.203-7.141,7.141-7.141s7.141,3.203,7.141,7.141
				c0,4.439,3.597,8.036,8.036,8.036c4.438,0,8.036-3.597,8.036-8.036c0-12.799-10.414-23.214-23.214-23.214
				c-12.799,0-23.214,10.414-23.214,23.214C307.461,186.943,311.059,190.54,315.498,190.54z"/>
			<path d="M296.9,251.865c-14.097,0-25.566,11.469-25.566,25.566c0,14.096,11.469,25.565,25.566,25.565
				c14.097,0,25.566-11.469,25.566-25.565C322.467,263.334,310.998,251.865,296.9,251.865z M296.9,286.923
				c-5.234,0-9.493-4.258-9.493-9.492c0-5.234,4.259-9.493,9.493-9.493c5.234,0,9.493,4.259,9.493,9.493
				C306.394,282.665,302.135,286.923,296.9,286.923z"/>
			<path d="M160.795,318.597c-4.438,0-8.036,3.597-8.036,8.036v57.195c0,4.439,3.598,8.036,8.036,8.036s8.036-3.597,8.036-8.036
				v-57.195C168.832,322.195,165.234,318.597,160.795,318.597z"/>
			<path d="M294.222,191.282c0-4.439-3.598-8.036-8.036-8.036c-4.439,0-8.036,3.597-8.036,8.036c0,3.891-3.164,7.055-7.055,7.055
				s-7.055-3.164-7.055-7.055c0-4.439-3.597-8.036-8.036-8.036c-4.438,0-8.037,3.597-8.037,8.036c0,3.891-3.165,7.055-7.055,7.055
				c-3.891,0-7.057-3.164-7.057-7.055c0-4.439-3.598-8.036-8.036-8.036c-4.438,0-8.036,3.597-8.036,8.036
				c0,12.752,10.377,23.128,23.13,23.128c5.768,0,11.036-2.137,15.092-5.642c4.055,3.504,9.323,5.642,15.091,5.642
				C283.847,214.409,294.222,204.034,294.222,191.282z"/>
		</g>
	</g>
</g>
<g>
</g>
<g>
</g>
<g>
</g>
<g>
</g>
<g>
</g>
<g>
</g>
<g>
</g>
<g>
</g>
<g>
</g>
<g>
</g>
<g>
</g>
<g>
</g>
<g>
</g>
<g>
</g>
<g>
</g>
</svg>
