<?xml version="1.0" encoding="iso-8859-1"?>
<!-- Generator: Adobe Illustrator 19.0.0, SVG Export Plug-In . SVG Version: 6.00 Build 0)  -->
<svg version="1.1" id="Layer_1" xmlns="http://www.w3.org/2000/svg" xmlns:xlink="http://www.w3.org/1999/xlink" x="0px" y="0px"
	 viewBox="0 0 512.001 512.001" style="enable-background:new 0 0 512.001 512.001;" xml:space="preserve">
<g>
	<g>
		<g>
			<path d="M495.359,355.58c10.498-9.467,16.642-23.052,16.642-37.32c0-12.488-4.593-23.915-12.162-32.71
				c0.712-4.358,1.076-8.792,1.076-13.232c0-36.123-23.67-66.807-56.309-77.397c-0.151-7.704-3.233-15.091-8.838-20.694
				l-58.204-58.202c-11.787-11.785-30.967-11.787-42.753,0l-13.413,13.413c-14.836-20.018-38.624-33.023-65.398-33.023
				s-50.562,13.005-65.398,33.023l-13.413-13.413c-11.787-11.785-30.967-11.787-42.753,0l-58.204,58.202
				c-5.605,5.604-8.687,12.99-8.838,20.694c-32.639,10.59-56.309,41.274-56.309,77.397c0,4.439,0.363,8.873,1.076,13.232
				C4.592,294.346,0,305.773,0,318.261c0,14.266,6.144,27.853,16.642,37.32c-1.851,8.552-3.262,17.23-4.189,26.011
				c-1.269,12.016,0.536,20.274,5.679,25.99c6.331,7.035,15.956,8.006,25.415,8.006h424.91c9.458,0,19.083-0.97,25.415-8.006
				c5.143-5.716,6.948-13.974,5.679-25.99C498.62,372.811,497.211,364.133,495.359,355.58z M484.946,272.319
				c0,0.464-0.028,0.925-0.037,1.388c-6.926-3.61-14.788-5.663-23.124-5.663c-1.453,0-2.905,0.072-4.353,0.198
				c-10.619-15.323-23.038-29.509-37.101-42.243c-6.382-5.78-13.04-11.177-19.923-16.209c6.175-1.884,12.635-2.864,19.144-2.864
				C455.61,206.927,484.946,236.262,484.946,272.319z M346.102,127.318c5.561-5.562,14.609-5.562,20.17,0l58.204,58.202
				c1.675,1.674,2.854,3.696,3.522,5.878c-2.776-0.289-5.593-0.439-8.444-0.439c-4.837,0-9.653,0.442-14.387,1.29
				c-14.496-24.621-41.377-40.217-70.191-40.217c-0.601,0-1.201,0.02-1.801,0.034c-0.967-2.895-2.088-5.717-3.362-8.457
				L346.102,127.318z M389.214,196.813c-1.652,0.663-3.282,1.383-4.887,2.154c-14.855-9.15-30.612-16.647-46.997-22.411
				c-0.043-2.881-0.237-5.725-0.574-8.527C358.183,168.597,377.484,179.323,389.214,196.813z M320.855,169.534
				c0.082,0.644,0.165,1.289,0.228,1.939c-1.283-0.352-2.565-0.706-3.854-1.039C318.427,170.098,319.638,169.802,320.855,169.534z
				 M256,112.384c27.689,0,51.396,17.306,60.918,41.663c-9.302,2.105-18.164,5.833-26.252,11.099
				c-11.412-1.625-22.992-2.458-34.666-2.458c-11.674,0-23.253,0.834-34.666,2.458c-8.088-5.265-16.949-8.995-26.252-11.099
				C204.604,129.689,228.311,112.384,256,112.384z M191.146,169.534c1.218,0.267,2.428,0.563,3.626,0.901
				c-1.289,0.333-2.571,0.687-3.854,1.039C190.981,170.823,191.064,170.179,191.146,169.534z M87.525,185.519l58.204-58.202
				c5.561-5.562,14.609-5.562,20.17,0l16.29,16.29c-1.273,2.74-2.394,5.563-3.362,8.457c-0.6-0.014-1.199-0.034-1.801-0.034
				c-28.814,0-55.695,15.596-70.191,40.217c-4.733-0.848-9.548-1.29-14.387-1.29c-2.851,0-5.668,0.151-8.444,0.439
				C84.67,189.216,85.85,187.193,87.525,185.519z M175.243,168.03c-0.336,2.802-0.531,5.647-0.574,8.527
				c-16.385,5.764-32.141,13.26-46.997,22.41c-1.605-0.772-3.235-1.49-4.888-2.154C134.516,179.323,153.818,168.597,175.243,168.03z
				 M92.447,206.927c6.51,0,12.97,0.981,19.144,2.864c-6.884,5.032-13.54,10.43-19.923,16.209
				c-14.062,12.733-26.481,26.92-37.101,42.243c-1.448-0.125-2.901-0.198-4.353-0.198c-8.336,0-16.198,2.054-23.124,5.663
				c-0.01-0.463-0.037-0.924-0.037-1.388C27.055,236.262,56.39,206.927,92.447,206.927z M15.969,318.261
				c0-16.834,12.213-30.86,28.24-33.709c-9.582,16.467-17.221,34.008-22.731,52.294C17.941,331.367,15.969,324.923,15.969,318.261z
				 M482,396.898c-2.169,2.41-8.378,2.719-13.545,2.719H43.546c-5.167,0-11.376-0.309-13.545-2.719
				c-1.793-1.993-2.386-6.834-1.668-13.631c5.902-55.886,32.201-107.536,74.056-145.43c42.149-38.164,96.703-59.181,153.613-59.181
				c56.909,0,111.464,21.017,153.613,59.181c41.854,37.896,68.154,89.544,74.056,145.431
				C484.386,390.065,483.793,394.906,482,396.898z M490.522,336.846c-5.51-18.286-13.148-35.827-22.731-52.294
				c16.028,2.849,28.24,16.876,28.24,33.709C496.031,324.923,494.059,331.367,490.522,336.846z"/>
			<path d="M383.032,320.64h-30.931c-4.41,0-7.984,3.574-7.984,7.984s3.575,7.984,7.984,7.984h30.931
				c4.409,0,7.984-3.574,7.984-7.984S387.443,320.64,383.032,320.64z"/>
			<path d="M292.202,292.549c-4.41,0-7.984,3.575-7.984,7.984c0,5.578-4.538,10.118-10.116,10.118
				c-5.578,0-10.118-4.539-10.118-10.118c0-4.409-3.575-7.984-7.984-7.984s-7.984,3.575-7.984,7.984
				c0,5.578-4.538,10.118-10.117,10.118s-10.117-4.539-10.117-10.118c0-4.409-3.575-7.984-7.984-7.984
				c-4.409,0-7.984,3.575-7.984,7.984c0,14.385,11.702,26.087,26.085,26.087c7.025,0,13.406-2.797,18.101-7.33
				c4.695,4.533,11.076,7.33,18.102,7.33c14.383,0,26.084-11.702,26.084-26.087C300.187,296.124,296.612,292.549,292.202,292.549z"
				/>
			<path d="M159.899,320.64h-30.931c-4.409,0-7.984,3.574-7.984,7.984s3.575,7.984,7.984,7.984h30.931
				c4.41,0,7.984-3.574,7.984-7.984S164.309,320.64,159.899,320.64z"/>
			<path d="M353.11,301.572c4.409,0,7.984-3.574,7.984-7.984c0-3.57,2.904-6.473,6.473-6.473c3.568,0,6.473,2.903,6.473,6.473
				c0,4.411,3.575,7.984,7.984,7.984s7.984-3.574,7.984-7.984c0-12.375-10.067-22.441-22.441-22.441s-22.441,10.067-22.441,22.441
				C345.126,297.997,348.701,301.572,353.11,301.572z"/>
			<path d="M129.976,301.572c4.409,0,7.984-3.574,7.984-7.984c0-3.57,2.904-6.473,6.473-6.473c3.568,0,6.473,2.903,6.473,6.473
				c0,4.411,3.575,7.984,7.984,7.984c4.41,0,7.984-3.574,7.984-7.984c0-12.375-10.067-22.441-22.441-22.441
				c-12.375,0-22.441,10.067-22.441,22.441C121.992,297.997,125.566,301.572,129.976,301.572z"/>
		</g>
	</g>
</g>
<g>
</g>
<g>
</g>
<g>
</g>
<g>
</g>
<g>
</g>
<g>
</g>
<g>
</g>
<g>
</g>
<g>
</g>
<g>
</g>
<g>
</g>
<g>
</g>
<g>
</g>
<g>
</g>
<g>
</g>
</svg>
