<?xml version="1.0" encoding="iso-8859-1"?>
<!-- Generator: Adobe Illustrator 19.0.0, SVG Export Plug-In . SVG Version: 6.00 Build 0)  -->
<svg version="1.1" id="Layer_1" xmlns="http://www.w3.org/2000/svg" xmlns:xlink="http://www.w3.org/1999/xlink" x="0px" y="0px"
	 viewBox="0 0 512 512" style="enable-background:new 0 0 512 512;" xml:space="preserve">
<g>
	<g>
		<g>
			<circle cx="145.172" cy="143.696" r="14.362"/>
			<path d="M351.472,193.888H382.2c4.381,0,7.932-3.551,7.932-7.932s-3.55-7.932-7.932-7.932h-30.728
				c-4.382,0-7.932,3.551-7.932,7.932S347.091,193.888,351.472,193.888z"/>
			<path d="M129.809,193.888h30.728c4.381,0,7.932-3.551,7.932-7.932s-3.55-7.932-7.932-7.932h-30.728
				c-4.382,0-7.932,3.551-7.932,7.932S125.428,193.888,129.809,193.888z"/>
			<circle cx="366.835" cy="143.696" r="14.362"/>
			<path d="M238.021,183.965c6.98,0,13.319-2.778,17.983-7.28c4.664,4.502,11.003,7.28,17.982,7.28
				c14.289,0,25.914-11.625,25.914-25.912c0-4.38-3.55-7.932-7.932-7.932c-4.381,0-7.932,3.551-7.932,7.932
				c0,5.542-4.508,10.049-10.05,10.049c-5.542,0-10.05-4.508-10.05-10.049c0-4.38-3.55-7.932-7.932-7.932
				c-4.381,0-7.932,3.551-7.932,7.932c0,5.542-4.509,10.049-10.051,10.049c-5.542,0-10.05-4.508-10.05-10.049
				c0-4.38-3.55-7.932-7.932-7.932s-7.932,3.551-7.932,7.932C212.108,172.34,223.733,183.965,238.021,183.965z"/>
			<path d="M259.23,269.673l-22.434-22.434c-4.482-4.482-10.458-6.95-16.827-6.95c-6.368,0-12.343,2.468-16.825,6.95l-89.664,89.665
				c-4.482,4.482-6.951,10.457-6.951,16.826s2.469,12.344,6.95,16.826l22.434,22.434c4.482,4.482,10.458,6.95,16.826,6.95
				s12.344-2.468,16.826-6.95l89.665-89.665C268.508,294.047,268.508,278.95,259.23,269.673z M248.013,292.107l-89.664,89.665
				c-1.486,1.486-3.478,2.304-5.609,2.304c-2.131,0-4.122-0.819-5.608-2.304l-22.434-22.434c-1.486-1.486-2.305-3.478-2.305-5.609
				c0-2.131,0.819-4.122,2.305-5.608l89.665-89.665c1.485-1.486,3.476-2.303,5.607-2.303c2.132,0,4.123,0.819,5.609,2.304
				l22.434,22.434C251.106,283.982,251.106,289.015,248.013,292.107z"/>
			<path d="M414.184,28.55H298.454c-14.693,0-29.282,3.337-42.455,9.682c-13.173-6.345-27.762-9.682-42.455-9.682H97.816
				C43.88,28.55,0,72.429,0,126.366c0,33.061,16.095,63.105,43.286,81.252v213.45c0,34.397,27.984,62.383,62.382,62.383h300.665
				c34.397,0,62.382-27.984,62.382-62.383v-213.45C495.905,189.471,512,159.426,512,126.366C512,72.429,468.12,28.55,414.184,28.55z
				 M456.682,196.471c-2.378,1.436-3.832,4.012-3.832,6.79v217.807c0,25.65-20.868,46.519-46.518,46.519H105.668
				c-25.65,0-46.518-20.868-46.518-46.519V203.261c0-2.778-1.453-5.354-3.832-6.79c-24.706-14.919-39.455-41.127-39.455-70.106
				c0-45.189,36.764-81.953,81.953-81.953h115.729c13.493,0,26.876,3.356,38.704,9.704c2.343,1.256,5.16,1.256,7.502,0
				c11.828-6.349,25.21-9.704,38.704-9.704h115.729c45.189,0,81.953,36.764,81.953,81.953
				C496.137,155.345,481.388,181.553,456.682,196.471z"/>
			<path d="M414.184,55.774H298.454c-15.426,0-30.259,5-42.455,14.198c-12.195-9.199-27.029-14.198-42.455-14.198H97.816
				c-38.925,0-70.591,31.667-70.591,70.591c0,28.715,17.17,54.189,43.286,65.104v229.598c0,19.386,15.771,35.157,35.157,35.157
				h300.665c19.385,0,35.157-15.771,35.157-35.157V191.47c26.115-10.915,43.286-36.389,43.286-65.104
				C484.775,87.442,453.107,55.774,414.184,55.774z M431.107,178.414c-3.269,1.062-5.481,4.107-5.481,7.544v235.11
				c0,10.638-8.655,19.293-19.293,19.293H105.668c-10.639,0-19.293-8.655-19.293-19.293V185.956c0-3.436-2.212-6.482-5.481-7.544
				c-22.613-7.347-37.805-28.263-37.805-52.048c0-30.177,24.551-54.728,54.728-54.728h115.729c13.777,0,26.946,5.145,37.078,14.487
				c3.038,2.799,7.715,2.799,10.753,0c10.133-9.341,23.3-14.487,37.078-14.487h115.729c30.177,0,54.728,24.55,54.728,54.728
				C468.912,150.15,453.719,171.067,431.107,178.414z"/>
			<path d="M376.086,247.239c-4.482-4.482-10.458-6.95-16.826-6.95c-6.368,0-12.344,2.468-16.826,6.95l-89.665,89.665
				c-9.277,9.278-9.277,24.374,0,33.652l22.434,22.434c4.482,4.482,10.458,6.95,16.827,6.95c6.368,0,12.343-2.468,16.825-6.95
				l89.664-89.665c4.482-4.482,6.951-10.457,6.951-16.826s-2.469-12.344-6.95-16.826L376.086,247.239z M387.302,292.107
				l-89.665,89.665c-1.485,1.486-3.476,2.303-5.607,2.303c-2.132,0-4.123-0.819-5.609-2.304l-22.434-22.434
				c-3.093-3.092-3.093-8.125,0-11.218l89.664-89.665c1.486-1.486,3.478-2.304,5.609-2.304s4.122,0.819,5.608,2.304l22.434,22.434
				c1.486,1.486,2.305,3.478,2.305,5.609C389.607,288.629,388.788,290.622,387.302,292.107z"/>
		</g>
	</g>
</g>
<g>
</g>
<g>
</g>
<g>
</g>
<g>
</g>
<g>
</g>
<g>
</g>
<g>
</g>
<g>
</g>
<g>
</g>
<g>
</g>
<g>
</g>
<g>
</g>
<g>
</g>
<g>
</g>
<g>
</g>
</svg>
